<svg width="60" height="61" viewBox="0 0 60 61" fill="none" xmlns="http://www.w3.org/2000/svg">
<g filter="url(#filter0_dd_1959_73119)">
<rect x="10" y="6" width="40" height="41" rx="8" fill="white"/>
<path d="M34.3502 36.7008C34.2967 36.8422 34.227 36.9774 34.1369 37.0987C33.919 37.3927 33.6499 37.5455 33.3441 37.6735C33.3045 37.6914 33.263 37.7069 33.2202 37.7202C33.1787 37.7338 33.1359 37.7462 33.0935 37.7565C33.0717 37.7617 33.0507 37.7659 33.0289 37.7711C32.9842 37.7796 32.9595 37.8545 32.9151 37.8597L32.788 37.917C32.4398 37.917 32.5286 38.0133 32.148 38.0143C29.4633 38.0163 26.3285 38.0176 23.9774 38.0143L32.1775 17.4633C32.6609 16.2756 33.8152 15.5 35.0963 15.5H40.3182C41.3859 15.5 42.1148 16.5823 41.7115 17.5722L34.3502 36.7008Z" fill="url(#paint0_linear_1959_73119)"/>
<path d="M34.3502 36.7008C34.2967 36.8422 34.227 36.9774 34.1369 37.0987C33.919 37.3927 33.6499 37.5455 33.3441 37.6735C33.3045 37.6914 33.263 37.7069 33.2202 37.7202C33.1787 37.7338 33.1359 37.7462 33.0935 37.7565C33.0717 37.7617 33.0507 37.7659 33.0289 37.7711C32.9842 37.7796 32.9404 37.7867 32.896 37.7919L32.788 37.917C32.4398 37.917 32.5286 38.0133 32.148 38.0143C29.4633 38.0163 26.3285 38.0176 23.9774 38.0143L32.1775 17.4633C32.6609 16.2756 33.8152 15.5 35.0963 15.5H40.3182C41.3859 15.5 42.1148 16.5823 41.7115 17.5722L34.3502 36.7008Z" fill="url(#paint1_linear_1959_73119)" fill-opacity="0.8"/>
<path d="M34.3116 36.7394C34.2581 36.8808 34.1884 37.016 34.0983 37.1372C33.8804 37.4313 33.6113 37.584 33.3055 37.7121C33.266 37.73 33.2245 37.7455 33.1817 37.7588C33.1401 37.7724 33.0973 37.7848 33.0549 37.7951C33.0331 37.8003 33.0121 37.8045 32.9903 37.8097C32.9456 37.8181 32.9018 37.8253 32.8574 37.8305L32.788 37.917C32.4398 37.917 32.5286 38.0133 32.148 38.0143C29.4633 38.0163 26.3285 38.0176 23.9774 38.0143L32.1775 17.4633C32.6609 16.2756 33.8152 15.5 35.0963 15.5H40.3182C41.3859 15.5 42.1148 16.5823 41.7115 17.5722L34.3116 36.7394Z" fill="url(#paint2_linear_1959_73119)" fill-opacity="0.6"/>
<mask id="mask0_1959_73119" style="mask-type:alpha" maskUnits="userSpaceOnUse" x="23" y="15" width="19" height="24">
<path d="M34.3502 36.7008C34.2967 36.8422 34.227 36.9774 34.1369 37.0987C33.919 37.3927 33.6499 37.5455 33.3441 37.6735C33.3045 37.6914 33.263 37.7069 33.2202 37.7202C33.1787 37.7338 33.1359 37.7462 33.0935 37.7565C33.0717 37.7617 33.0507 37.7659 33.0289 37.7711C32.9842 37.7796 32.9595 37.8545 32.9151 37.8597L32.788 37.917C32.4398 37.917 32.5286 38.0133 32.148 38.0143C29.4633 38.0163 26.3285 38.0176 23.9774 38.0143L32.1775 17.4633C32.6609 16.2756 33.8152 15.5 35.0963 15.5H40.3182C41.3859 15.5 42.1148 16.5823 41.7115 17.5722L34.3502 36.7008Z" fill="url(#paint3_linear_1959_73119)"/>
</mask>
<g mask="url(#mask0_1959_73119)">
<g opacity="0.5" filter="url(#filter1_f_1959_73119)" style="mix-blend-mode:multiply">
<path d="M29.3629 24.8199L27.5356 28.6061L28.0295 30.3346L30.8445 36.0633L32.3096 37.4791L33.5936 37.6437L29.3629 24.8199Z" fill="url(#paint4_linear_1959_73119)"/>
</g>
<g filter="url(#filter2_f_1959_73119)">
<path d="M34.318 36.7877L41.6763 17.6723C41.7634 17.4458 41.8081 17.2052 41.8081 16.9626V16.8029L41.7423 16.4737L41.5777 16.1774L41.3801 15.914L41.1167 15.7L40.5076 15.5024L41.1048 16.1549C41.2945 16.3622 41.4145 16.6238 41.4477 16.9028C41.4682 17.075 41.4457 17.2495 41.3823 17.4109L33.5443 37.3638L34.318 36.7877Z" fill="url(#paint5_linear_1959_73119)"/>
</g>
<g opacity="0.7" filter="url(#filter3_f_1959_73119)">
<path d="M27.7661 29.1329L27.6674 28.9024L32.3425 17.2309L32.6224 16.7864L32.9681 16.3914L27.7661 29.1329Z" fill="url(#paint6_linear_1959_73119)"/>
</g>
<g opacity="0.71" filter="url(#filter4_f_1959_73119)">
<path d="M34.1061 15.5683L34.0875 15.5847L43.3391 15.7164L42.7379 15.453H35.2871L34.1061 15.5683Z" fill="url(#paint7_linear_1959_73119)"/>
</g>
</g>
<path d="M23.4956 38.0148C22.9216 37.9743 22.2475 37.6284 21.9002 36.8374L17.11 25.1106C16.7128 24.1217 17.4407 23.0456 18.5065 23.0456H23.5701C24.8584 23.0456 25.8233 23.8305 26.3015 25.0273L30.4736 35.0798C31.8153 38.0349 33.7808 37.9324 34.3071 36.8005C34.3109 36.7934 34.3106 36.793 34.3071 36.8005C34.0543 37.4354 33.4177 38.0352 32.3499 38.0352L23.4956 38.0148Z" fill="url(#paint8_radial_1959_73119)"/>
<mask id="mask1_1959_73119" style="mask-type:alpha" maskUnits="userSpaceOnUse" x="17" y="23" width="18" height="16">
<path d="M23.4956 38.0148C22.9216 37.9743 22.2475 37.6284 21.9002 36.8374L17.11 25.1106C16.7128 24.1217 17.4407 23.0456 18.5065 23.0456H23.5701C24.8584 23.0456 25.8233 23.8305 26.3015 25.0273L30.4736 35.0798C31.8153 38.0349 33.7808 37.9324 34.3071 36.8005C34.3109 36.7934 34.3106 36.793 34.3071 36.8005C34.0543 37.4354 33.4177 38.0352 32.3499 38.0352L23.4956 38.0148Z" fill="url(#paint9_radial_1959_73119)"/>
</mask>
<g mask="url(#mask1_1959_73119)">
<g filter="url(#filter5_f_1959_73119)">
<path d="M27.7339 34.6741C26.7489 36.4272 21.9279 36.3069 19.9302 36.0276L21.3425 38.0901L32.6587 38.4339L33.5278 36.0276L28.5124 28.2933C28.6633 29.6898 28.7188 32.921 27.7339 34.6741Z" fill="url(#paint10_linear_1959_73119)"/>
</g>
<g opacity="0.93" filter="url(#filter6_f_1959_73119)">
<path d="M22.0044 36.9523L20.9673 34.5324C21.3512 35.2701 22.1015 37.2397 23.5189 37.5449C26.1364 37.5449 30.165 37.3758 31.4207 37.3968C33.001 37.4231 33.868 37.4187 34.0875 37.1663C33.6924 37.8774 32.7376 38.0223 32.3096 38.0059H23.5189C22.5312 37.861 22.0977 37.2431 22.0044 36.9523Z" fill="url(#paint11_linear_1959_73119)"/>
</g>
<g filter="url(#filter7_f_1959_73119)">
<path d="M25.7742 24.5894C25.1839 23.5357 24.1554 23.2231 23.6835 23.1572C25.0795 23.1572 25.8455 24.1998 26.054 24.7211L31.1572 36.3267C32.2354 37.7886 33.4392 37.4955 33.9064 37.1663C32.7211 38.5886 31.2835 36.8919 30.5975 35.8658C29.2696 32.6063 26.3866 25.6825 25.7742 24.5894Z" fill="url(#paint12_linear_1959_73119)"/>
</g>
<g filter="url(#filter8_f_1959_73119)">
<path d="M30.4736 35.0798C31.8322 38.0717 33.7808 37.9324 34.3071 36.8005C34.311 36.7934 34.3106 36.793 34.3071 36.8005C34.0915 37.3422 33.7604 37.6692 33.0033 37.6411C32.7162 37.6304 32.4354 37.5416 32.193 37.3875C30.9341 36.587 30.4736 35.0798 30.4736 35.0798Z" fill="#AADEFF"/>
</g>
<g opacity="0.5" filter="url(#filter9_f_1959_73119)">
<path d="M17.0823 24.8363L21.6587 36.0633L22.1197 36.8864L17.2963 24.9351C17.0724 23.9079 17.9219 23.245 18.4157 23.0914C17.1251 23.3152 16.989 24.3479 17.0823 24.8363Z" fill="url(#paint13_linear_1959_73119)"/>
</g>
</g>
</g>
<defs>
<filter id="filter0_dd_1959_73119" x="0" y="0" width="60" height="61" filterUnits="userSpaceOnUse" color-interpolation-filters="sRGB">
<feFlood flood-opacity="0" result="BackgroundImageFix"/>
<feColorMatrix in="SourceAlpha" type="matrix" values="0 0 0 0 0 0 0 0 0 0 0 0 0 0 0 0 0 0 127 0" result="hardAlpha"/>
<feOffset dy="1"/>
<feGaussianBlur stdDeviation="1.5"/>
<feColorMatrix type="matrix" values="0 0 0 0 0.0313726 0 0 0 0 0.0745098 0 0 0 0 0.309804 0 0 0 0.04 0"/>
<feBlend mode="normal" in2="BackgroundImageFix" result="effect1_dropShadow_1959_73119"/>
<feColorMatrix in="SourceAlpha" type="matrix" values="0 0 0 0 0 0 0 0 0 0 0 0 0 0 0 0 0 0 127 0" result="hardAlpha"/>
<feOffset dy="4"/>
<feGaussianBlur stdDeviation="5"/>
<feColorMatrix type="matrix" values="0 0 0 0 0.0313726 0 0 0 0 0.0745098 0 0 0 0 0.309804 0 0 0 0.08 0"/>
<feBlend mode="normal" in2="effect1_dropShadow_1959_73119" result="effect2_dropShadow_1959_73119"/>
<feBlend mode="normal" in="SourceGraphic" in2="effect2_dropShadow_1959_73119" result="shape"/>
</filter>
<filter id="filter1_f_1959_73119" x="26.2022" y="23.4864" width="8.72481" height="15.4907" filterUnits="userSpaceOnUse" color-interpolation-filters="sRGB">
<feFlood flood-opacity="0" result="BackgroundImageFix"/>
<feBlend mode="normal" in="SourceGraphic" in2="BackgroundImageFix" result="shape"/>
<feGaussianBlur stdDeviation="0.666708" result="effect1_foregroundBlur_1959_73119"/>
</filter>
<filter id="filter2_f_1959_73119" x="33.3138" y="15.2719" width="8.72479" height="22.3224" filterUnits="userSpaceOnUse" color-interpolation-filters="sRGB">
<feFlood flood-opacity="0" result="BackgroundImageFix"/>
<feBlend mode="normal" in="SourceGraphic" in2="BackgroundImageFix" result="shape"/>
<feGaussianBlur stdDeviation="0.115233" result="effect1_foregroundBlur_1959_73119"/>
</filter>
<filter id="filter3_f_1959_73119" x="27.4468" y="16.1708" width="5.7419" height="13.1827" filterUnits="userSpaceOnUse" color-interpolation-filters="sRGB">
<feFlood flood-opacity="0" result="BackgroundImageFix"/>
<feBlend mode="normal" in="SourceGraphic" in2="BackgroundImageFix" result="shape"/>
<feGaussianBlur stdDeviation="0.110295" result="effect1_foregroundBlur_1959_73119"/>
</filter>
<filter id="filter4_f_1959_73119" x="33.8044" y="15.1699" width="9.81788" height="0.829681" filterUnits="userSpaceOnUse" color-interpolation-filters="sRGB">
<feFlood flood-opacity="0" result="BackgroundImageFix"/>
<feBlend mode="normal" in="SourceGraphic" in2="BackgroundImageFix" result="shape"/>
<feGaussianBlur stdDeviation="0.141573" result="effect1_foregroundBlur_1959_73119"/>
</filter>
<filter id="filter5_f_1959_73119" x="19.2718" y="27.6348" width="14.9145" height="11.4575" filterUnits="userSpaceOnUse" color-interpolation-filters="sRGB">
<feFlood flood-opacity="0" result="BackgroundImageFix"/>
<feBlend mode="normal" in="SourceGraphic" in2="BackgroundImageFix" result="shape"/>
<feGaussianBlur stdDeviation="0.329238" result="effect1_foregroundBlur_1959_73119"/>
</filter>
<filter id="filter6_f_1959_73119" x="20.6348" y="34.1999" width="13.7852" height="4.13974" filterUnits="userSpaceOnUse" color-interpolation-filters="sRGB">
<feFlood flood-opacity="0" result="BackgroundImageFix"/>
<feBlend mode="normal" in="SourceGraphic" in2="BackgroundImageFix" result="shape"/>
<feGaussianBlur stdDeviation="0.166265" result="effect1_foregroundBlur_1959_73119"/>
</filter>
<filter id="filter7_f_1959_73119" x="23.2819" y="22.7555" width="11.0262" height="15.357" filterUnits="userSpaceOnUse" color-interpolation-filters="sRGB">
<feFlood flood-opacity="0" result="BackgroundImageFix"/>
<feBlend mode="normal" in="SourceGraphic" in2="BackgroundImageFix" result="shape"/>
<feGaussianBlur stdDeviation="0.200835" result="effect1_foregroundBlur_1959_73119"/>
</filter>
<filter id="filter8_f_1959_73119" x="30.3419" y="34.9481" width="4.09969" height="2.8264" filterUnits="userSpaceOnUse" color-interpolation-filters="sRGB">
<feFlood flood-opacity="0" result="BackgroundImageFix"/>
<feBlend mode="normal" in="SourceGraphic" in2="BackgroundImageFix" result="shape"/>
<feGaussianBlur stdDeviation="0.0658477" result="effect1_foregroundBlur_1959_73119"/>
</filter>
<filter id="filter9_f_1959_73119" x="16.8943" y="22.9267" width="5.38997" height="14.1243" filterUnits="userSpaceOnUse" color-interpolation-filters="sRGB">
<feFlood flood-opacity="0" result="BackgroundImageFix"/>
<feBlend mode="normal" in="SourceGraphic" in2="BackgroundImageFix" result="shape"/>
<feGaussianBlur stdDeviation="0.0823096" result="effect1_foregroundBlur_1959_73119"/>
</filter>
<linearGradient id="paint0_linear_1959_73119" x1="48.4335" y1="-17.0029" x2="28.7044" y2="44.0803" gradientUnits="userSpaceOnUse">
<stop offset="0.59278" stop-color="#2C6EE4"/>
<stop offset="1" stop-color="#091D72"/>
</linearGradient>
<linearGradient id="paint1_linear_1959_73119" x1="29.4123" y1="15.4859" x2="40.9109" y2="25.5466" gradientUnits="userSpaceOnUse">
<stop offset="0.0776915" stop-color="#66B0F6"/>
<stop offset="0.96" stop-color="#091D72" stop-opacity="0"/>
</linearGradient>
<linearGradient id="paint2_linear_1959_73119" x1="40.4171" y1="15.5" x2="31.638" y2="37.0034" gradientUnits="userSpaceOnUse">
<stop stop-color="#081A6C" stop-opacity="0"/>
<stop offset="0.96" stop-color="#081A6C"/>
</linearGradient>
<linearGradient id="paint3_linear_1959_73119" x1="48.4335" y1="-17.0029" x2="31.5124" y2="36.6967" gradientUnits="userSpaceOnUse">
<stop offset="0.638" stop-color="#2C6EE4"/>
<stop offset="1" stop-color="#091D72"/>
</linearGradient>
<linearGradient id="paint4_linear_1959_73119" x1="31.6511" y1="31.5528" x2="28.8855" y2="32.2606" gradientUnits="userSpaceOnUse">
<stop stop-opacity="0"/>
<stop offset="1"/>
</linearGradient>
<linearGradient id="paint5_linear_1959_73119" x1="37.775" y1="15.6506" x2="37.775" y2="37.1334" gradientUnits="userSpaceOnUse">
<stop stop-color="#0051E6" stop-opacity="0.48"/>
<stop offset="0.360913" stop-color="#002C8A"/>
<stop offset="1" stop-color="#040E4B"/>
</linearGradient>
<linearGradient id="paint6_linear_1959_73119" x1="31.0421" y1="24.5894" x2="28.7374" y2="29.8078" gradientUnits="userSpaceOnUse">
<stop stop-color="#C0EFFF"/>
<stop offset="1" stop-color="#112971"/>
</linearGradient>
<linearGradient id="paint7_linear_1959_73119" x1="33.9558" y1="15.5847" x2="43.3391" y2="15.5847" gradientUnits="userSpaceOnUse">
<stop stop-color="#164DBA"/>
<stop offset="1" stop-color="#3580FF"/>
</linearGradient>
<radialGradient id="paint8_radial_1959_73119" cx="0" cy="0" r="1" gradientUnits="userSpaceOnUse" gradientTransform="translate(18.1029 24.0461) rotate(58.6884) scale(23.4219 41.4491)">
<stop offset="0.00352636" stop-color="#A4EAFF"/>
<stop offset="0.444703" stop-color="#0092FF"/>
<stop offset="0.839256" stop-color="#0346AD"/>
</radialGradient>
<radialGradient id="paint9_radial_1959_73119" cx="0" cy="0" r="1" gradientUnits="userSpaceOnUse" gradientTransform="translate(18.1029 24.0461) rotate(58.6884) scale(23.4219 41.4491)">
<stop offset="0.00352636" stop-color="#A4EAFF"/>
<stop offset="0.444703" stop-color="#0092FF"/>
<stop offset="0.839256" stop-color="#0346AD"/>
</radialGradient>
<linearGradient id="paint10_linear_1959_73119" x1="27.8606" y1="34.0296" x2="29.2494" y2="37.4873" gradientUnits="userSpaceOnUse">
<stop stop-color="#3C95FD" stop-opacity="0"/>
<stop offset="1" stop-color="#1651C6"/>
</linearGradient>
<linearGradient id="paint11_linear_1959_73119" x1="27.6838" y1="34.8452" x2="28.0295" y2="39.7837" gradientUnits="userSpaceOnUse">
<stop stop-color="#017DE8"/>
<stop offset="1" stop-color="#002582"/>
</linearGradient>
<linearGradient id="paint12_linear_1959_73119" x1="25.873" y1="24.7375" x2="27.8813" y2="31.8162" gradientUnits="userSpaceOnUse">
<stop stop-color="#1D99F7"/>
<stop offset="1" stop-color="#0033C6"/>
</linearGradient>
<linearGradient id="paint13_linear_1959_73119" x1="20.5558" y1="29.5444" x2="21.5929" y2="36.8864" gradientUnits="userSpaceOnUse">
<stop stop-color="white"/>
<stop offset="1" stop-color="white" stop-opacity="0"/>
</linearGradient>
</defs>
</svg>
